<svg width="18" height="18" viewBox="0 0 18 18" fill="none" xmlns="http://www.w3.org/2000/svg">
<path d="M17.81 16.872L13.634 12.696H13.589C14.8762 11.1784 15.5266 9.22183 15.4043 7.23563C15.282 5.24943 14.3964 3.38745 12.9328 2.03919C11.4692 0.690928 9.54097 -0.039169 7.55142 0.00162163C5.56187 0.0424122 3.66516 0.85093 2.25805 2.25805C0.85093 3.66516 0.0424122 5.56187 0.00162163 7.55142C-0.039169 9.54097 0.690928 11.4692 2.03919 12.9328C3.38745 14.3964 5.24942 15.282 7.23563 15.4043C9.22183 15.5266 11.1784 14.8762 12.696 13.589C12.696 13.589 12.696 13.6212 12.696 13.634L16.872 17.81C16.9317 17.8702 17.0028 17.918 17.081 17.9506C17.1593 17.9832 17.2433 18 17.3281 18C17.4129 18 17.4969 17.9832 17.5752 17.9506C17.6535 17.918 17.7245 17.8702 17.7843 17.81C17.8501 17.7516 17.9033 17.6804 17.9405 17.6007C17.9777 17.521 17.9982 17.4345 18.0006 17.3465C18.003 17.2586 17.9873 17.1711 17.9545 17.0895C17.9217 17.0078 17.8725 16.9338 17.81 16.872ZM7.71701 14.1159C6.44636 14.1159 5.20424 13.7391 4.14773 13.0331C3.09122 12.3272 2.26777 11.3238 1.78151 10.1499C1.29525 8.97595 1.16803 7.68419 1.41592 6.43795C1.66381 5.19171 2.27569 4.04697 3.17418 3.14848C4.07266 2.24999 5.21741 1.63811 6.46365 1.39022C7.70988 1.14233 9.00164 1.26955 10.1756 1.75581C11.3495 2.24207 12.3529 3.06552 13.0588 4.12203C13.7648 5.17854 14.1416 6.42066 14.1416 7.69131C14.1416 8.535 13.9754 9.37042 13.6525 10.1499C13.3296 10.9293 12.8564 11.6376 12.2598 12.2341C11.6633 12.8307 10.955 13.304 10.1756 13.6268C9.39611 13.9497 8.56069 14.1159 7.71701 14.1159Z" fill="#969696"/>
</svg>
