<svg width="23" height="19" viewBox="0 0 23 19" fill="none" xmlns="http://www.w3.org/2000/svg">
<path d="M22.791 0.838852C22.7126 0.689478 22.5932 0.565526 22.4468 0.481568C22.3004 0.397609 22.1331 0.357134 21.9645 0.364904L1.2378 1.2581C1.05826 1.26831 0.886111 1.33285 0.744226 1.44315C0.602342 1.55344 0.497433 1.70428 0.443434 1.87561C0.389434 2.04694 0.388901 2.23067 0.441904 2.40239C0.494906 2.57411 0.598936 2.72569 0.740176 2.837L7.08905 8.02171L14.1411 4.34092L14.9578 5.90709L7.87777 9.58834L8.49994 17.7577C8.51307 17.9345 8.57905 18.1034 8.68933 18.2424C8.79961 18.3814 8.94911 18.4842 9.11847 18.5374C9.29041 18.5877 9.47355 18.5849 9.64374 18.5291C9.81393 18.4734 9.96319 18.3675 10.0718 18.2253L22.6891 1.78135C22.7937 1.65012 22.8589 1.49184 22.8769 1.32497C22.895 1.1581 22.8652 0.989505 22.791 0.838852Z" fill="white"/>
</svg>
