<svg width="42" height="42" viewBox="0 0 42 42" fill="none" xmlns="http://www.w3.org/2000/svg">
<g clip-path="url(#clip0_1790_74)">
<path d="M42 21C42 9.40202 32.598 0 21 0C9.40202 0 0 9.40202 0 21C0 32.598 9.40202 42 21 42C32.598 42 42 32.598 42 21Z" fill="black"/>
<path d="M22.323 19.0569L29.4058 11H27.7274L21.5774 17.9957L16.6654 11H11L18.4279 21.5787L11 30.0276H12.6785L19.1731 22.6399L24.3605 30.0276H30.0259L22.323 19.0569ZM20.0241 21.6719L19.2715 20.6185L13.2833 12.2365H15.8614L20.6939 19.001L21.4465 20.0544L27.7282 28.8473H25.1501L20.0241 21.6719Z" fill="white"/>
</g>
<defs>
<clipPath id="clip0_1790_74">
<rect width="42" height="42" fill="white"/>
</clipPath>
</defs>
</svg>
