<svg width="400" height="400" viewBox="0 0 400 400" fill="none" xmlns="http://www.w3.org/2000/svg">
<rect x="1.52588e-05" width="200" height="200" fill="#FEFFEA"/>
<rect x="1.52588e-05" width="100" height="200" fill="#1E1E1E"/>
<rect x="1.52588e-05" width="100" height="200" fill="#333333"/>
<rect x="200" width="200" height="200" fill="#E84A5F"/>
<path d="M200 -1.52588e-05C226.264 -1.52588e-05 252.272 5.17313 276.537 15.2241C300.802 25.275 322.85 40.0069 341.421 58.5786C359.993 77.1503 374.725 99.1982 384.776 123.463C394.827 147.728 400 173.736 400 200L200 200L200 -1.52588e-05Z" fill="#FEFFEA"/>
<rect x="200" y="400" width="200" height="200" transform="rotate(-90 200 400)" fill="#1E1E1E"/>
<path fill-rule="evenodd" clip-rule="evenodd" d="M378.787 200H392.929L200 392.929V378.787L378.787 200ZM221.213 400H207.071L400 207.071V221.213L221.213 400ZM235.355 400H249.497L400 249.497V235.355L235.355 400ZM277.782 400H263.64L400 263.64V277.782L277.782 400ZM291.924 400H306.066L400 306.066V291.924L291.924 400ZM334.35 400H320.208L400 320.208V334.35L334.35 400ZM348.492 400H362.635L400 362.635V348.492L348.492 400ZM390.919 400H376.777L400 376.777V390.919L390.919 400ZM364.645 200H350.503L200 350.503V364.645L364.645 200ZM322.218 200H336.36L200 336.36V322.218L322.218 200ZM308.076 200H293.934L200 293.934V308.076L308.076 200ZM265.65 200H279.792L200 279.792V265.65L265.65 200ZM251.508 200H237.365L200 237.365V251.508L251.508 200ZM209.081 200H223.223L200 223.223V209.081L209.081 200Z" fill="#99B898"/>
<rect y="400" width="200" height="200" transform="rotate(-90 0 400)" fill="#FCFC62"/>
<path d="M-1.52588e-05 400C-1.52588e-05 373.736 5.17313 347.728 15.2241 323.463C25.275 299.198 40.0069 277.15 58.5786 258.579C77.1503 240.007 99.1982 225.275 123.463 215.224C147.728 205.173 173.736 200 200 200L200 400H-1.52588e-05Z" fill="#333333"/>
</svg>
