<svg width="300" height="300" viewBox="0 0 300 300" fill="none" xmlns="http://www.w3.org/2000/svg">
<path d="M193.75 75L150 100L106.25 75L150 50V0L193.75 25V75Z" fill="#F5BE5A"/>
<path d="M237.5 150L193.75 125V75L237.5 100L281.25 75V125L237.5 150Z" fill="#F5BE5A"/>
<path d="M193.75 225V175L237.5 150V200L281.25 225L237.5 250L193.75 225Z" fill="#F5BE5A"/>
<path d="M106.25 225L150 200L193.75 225L150 250V300L106.25 275V225Z" fill="#F5BE5A"/>
<path d="M62.5 150L106.25 175V225L62.5 200L18.75 225V175L62.5 150Z" fill="#F5BE5A"/>
<path d="M62.5 150L106.25 125V75L62.5 50L18.75 75L62.5 100L62.5 150Z" fill="#F5BE5A"/>
</svg>
