<svg width="300" height="300" viewBox="0 0 300 300" fill="none" xmlns="http://www.w3.org/2000/svg">
<path d="M150 100L106.25 75V25L150 0L193.75 25V75L150 100Z" fill="#99B898"/>
<path d="M237.5 150L193.75 125V75L237.5 50L281.25 75V125L237.5 150Z" fill="#99B898"/>
<path d="M193.75 225V175L237.5 150L281.25 175V225L237.5 250L193.75 225Z" fill="#99B898"/>
<path d="M106.25 225L150 200L193.75 225V275L150 300L106.25 275V225Z" fill="#99B898"/>
<path d="M62.5 150L106.25 175V225L62.5 250L18.75 225V175L62.5 150Z" fill="#99B898"/>
<path d="M62.5 150L106.25 125V75L62.5 50L18.75 75V125L62.5 150Z" fill="#99B898"/>
</svg>
