<svg width="300" height="300" viewBox="0 0 300 300" fill="none" xmlns="http://www.w3.org/2000/svg">
<path d="M175 0L200 25L150 75L100 25L125 0H175Z" fill="#F5BE5A"/>
<path d="M25 100H100V25H62.5L25 62.5V100Z" fill="#F5BE5A"/>
<path d="M25 200L75 150L25 100L0 125V175L25 200Z" fill="#F5BE5A"/>
<path d="M100 275H62.5L25 237.5V200H100V275Z" fill="#F5BE5A"/>
<path d="M200 275L175 300H125L100 275L150 225L200 275Z" fill="#F5BE5A"/>
<path d="M275 200V237.5L237.5 275H200V200H275Z" fill="#F5BE5A"/>
<path d="M275 100L300 125V175L275 200L225 150L275 100Z" fill="#F5BE5A"/>
<path d="M275 100V62.5L237.5 25H200V100H275Z" fill="#F5BE5A"/>
</svg>
