<svg width="175" height="75" viewBox="0 0 175 75" fill="none" xmlns="http://www.w3.org/2000/svg">
<path d="M58.768 59.7694V61.4889H50.0781V59.7694H58.768ZM50.4089 52.9148V68.8583H48.2802V52.9148H50.4089ZM60.6208 52.9148V68.8583H58.5034V52.9148H60.6208ZM70.5461 54.3273L65.2304 68.8583H63.0581L69.1784 52.9148H70.5789L70.5461 54.3273ZM75.0013 68.8583L69.6748 54.3273L69.6415 52.9148H71.042L77.1848 68.8583H75.0013ZM74.7254 62.9563V64.686H65.7047V62.9563H74.7254ZM85.0589 61.4013H80.9893L80.9672 59.7037H84.6619C85.2719 59.7037 85.8053 59.6017 86.2609 59.3972C86.7169 59.1931 87.0697 58.901 87.3198 58.5214C87.5769 58.1342 87.7054 57.6744 87.7054 57.1415C87.7054 56.5578 87.5914 56.0831 87.3639 55.7178C87.1434 55.3456 86.8014 55.0754 86.3383 54.9077C85.8823 54.7326 85.3014 54.645 84.5958 54.645H81.4636V68.8583H79.3355V52.9148H84.5958C85.4192 52.9148 86.1544 52.9986 86.8014 53.1668C87.4483 53.3271 87.9959 53.5828 88.4444 53.9331C88.9004 54.2765 89.2457 54.7144 89.4812 55.2473C89.7163 55.7803 89.8341 56.419 89.8341 57.1634C89.8341 57.8203 89.6647 58.4156 89.3269 58.9486C88.9886 59.474 88.518 59.9045 87.9152 60.2404C87.3198 60.5763 86.6212 60.7915 85.8199 60.8865L85.0589 61.4013ZM84.9594 68.8583H80.1514L81.3534 67.1392H84.9594C85.6359 67.1392 86.2093 67.0223 86.6798 66.7885C87.1579 66.5551 87.522 66.2266 87.7716 65.8032C88.0217 65.3723 88.1469 64.8649 88.1469 64.2812C88.1469 63.6896 88.04 63.179 87.827 62.7481C87.6135 62.3172 87.279 61.985 86.8234 61.7516C86.3674 61.5182 85.7795 61.4013 85.0589 61.4013H82.0261L82.0482 59.7037H86.1947L86.647 60.3172C87.4188 60.3829 88.0733 60.6019 88.61 60.9741C89.1467 61.3393 89.5544 61.8061 89.8341 62.3759C90.1207 62.9451 90.2643 63.5731 90.2643 64.2593C90.2643 65.2521 90.0433 66.0915 89.6023 66.7777C89.1688 67.4565 88.5546 67.975 87.7608 68.3328C86.9665 68.6831 86.0329 68.8583 84.9594 68.8583ZM95.6898 52.9148V68.8583H93.5616V52.9148H95.6898ZM105.163 52.9148V68.8583H103.067V52.9148H105.163ZM110.324 52.9148V54.645H97.9174V52.9148H110.324ZM117.768 54.3273L112.453 68.8583H110.28L116.401 52.9148H117.801L117.768 54.3273ZM122.224 68.8583L116.897 54.3273L116.864 52.9148H118.264L124.407 68.8583H122.224ZM121.948 62.9563V64.686H112.927V62.9563H121.948ZM131.057 52.9148V68.8583H128.961V52.9148H131.057ZM136.218 52.9148V54.645H123.811V52.9148H136.218ZM140.883 52.9148V68.8583H138.754V52.9148H140.883ZM157.116 60.3829V61.3901C157.116 62.5874 156.966 63.6607 156.664 64.6096C156.363 65.5586 155.929 66.3655 155.363 67.0298C154.797 67.6941 154.116 68.2014 153.322 68.5517C152.536 68.902 151.654 69.0772 150.676 69.0772C149.727 69.0772 148.856 68.902 148.062 68.5517C147.275 68.2014 146.592 67.6941 146.011 67.0298C145.438 66.3655 144.993 65.5586 144.677 64.6096C144.36 63.6607 144.202 62.5874 144.202 61.3901V60.3829C144.202 59.1857 144.357 58.1161 144.665 57.1746C144.982 56.2256 145.426 55.4188 146 54.7545C146.573 54.0827 147.253 53.5716 148.04 53.2213C148.834 52.871 149.705 52.6958 150.654 52.6958C151.632 52.6958 152.514 52.871 153.3 53.2213C154.094 53.5716 154.775 54.0827 155.341 54.7545C155.914 55.4188 156.351 56.2256 156.653 57.1746C156.962 58.1161 157.116 59.1857 157.116 60.3829ZM155.01 61.3901V60.361C155.01 59.4121 154.911 58.5726 154.712 57.8422C154.521 57.1122 154.238 56.4991 153.863 56.0029C153.488 55.5063 153.028 55.1304 152.485 54.8751C151.948 54.6194 151.337 54.4917 150.654 54.4917C149.992 54.4917 149.393 54.6194 148.856 54.8751C148.327 55.1304 147.871 55.5063 147.489 56.0029C147.113 56.4991 146.823 57.1122 146.618 57.8422C146.412 58.5726 146.309 59.4121 146.309 60.361V61.3901C146.309 62.3465 146.412 63.1934 146.618 63.9309C146.823 64.6609 147.117 65.2777 147.5 65.7813C147.889 66.2779 148.349 66.6538 148.878 66.9091C149.415 67.1649 150.014 67.2925 150.676 67.2925C151.367 67.2925 151.981 67.1649 152.517 66.9091C153.054 66.6538 153.506 66.2779 153.874 65.7813C154.249 65.2777 154.532 64.6609 154.723 63.9309C154.914 63.1934 155.01 62.3465 155.01 61.3901ZM172.655 52.9148V68.8583H170.515L162.432 56.561V68.8583H160.303V52.9148H162.432L170.548 65.2446V52.9148H172.655Z" fill="#333333"/>
<path d="M56.2407 41.9478C56.2407 41.6631 56.1966 41.4075 56.1084 41.1812C56.0273 40.9477 55.8729 40.7359 55.6453 40.5461C55.4173 40.349 55.0974 40.1556 54.6859 39.9658C54.274 39.776 53.741 39.5789 53.0865 39.3745C52.3588 39.1409 51.6677 38.878 51.0132 38.586C50.3663 38.294 49.7929 37.9546 49.2928 37.5677C48.8006 37.1735 48.4108 36.7172 48.1241 36.1989C47.8445 35.6806 47.7051 35.0783 47.7051 34.3921C47.7051 33.7278 47.852 33.1255 48.1462 32.5853C48.4403 32.0378 48.8518 31.5706 49.381 31.1837C49.9107 30.7895 50.5356 30.4866 51.2558 30.2748C51.984 30.0631 52.7815 29.9573 53.649 29.9573C54.8327 29.9573 55.8659 30.169 56.7479 30.5924C57.6304 31.0158 58.314 31.5962 58.7991 32.3335C59.2917 33.0708 59.538 33.914 59.538 34.863H56.2515C56.2515 34.3958 56.1525 33.987 55.9541 33.6365C55.7626 33.2789 55.4685 32.9978 55.0716 32.7934C54.6821 32.589 54.1895 32.4868 53.5941 32.4868C53.0204 32.4868 52.5427 32.5744 52.1604 32.7496C51.778 32.9175 51.4913 33.1474 51.2999 33.4394C51.109 33.7242 51.0132 34.0454 51.0132 34.4031C51.0132 34.6732 51.0794 34.9177 51.2117 35.1367C51.3515 35.3557 51.5575 35.5602 51.8296 35.75C52.1012 35.9397 52.4358 36.1186 52.8332 36.2865C53.2301 36.4544 53.6894 36.6187 54.2116 36.7793C55.0866 37.0421 55.8546 37.3377 56.5166 37.6663C57.1856 37.9947 57.7439 38.3634 58.1925 38.7722C58.641 39.181 58.9793 39.6446 59.2073 40.1629C59.4353 40.6812 59.5493 41.2689 59.5493 41.9259C59.5493 42.6194 59.4132 43.2399 59.1411 43.7874C58.869 44.3349 58.4758 44.7985 57.9612 45.1781C57.4465 45.5577 56.8323 45.846 56.1192 46.0431C55.4061 46.2402 54.6085 46.3388 53.7264 46.3388C52.9321 46.3388 52.1491 46.2366 51.3773 46.0322C50.6055 45.8205 49.9032 45.5029 49.2708 45.0795C48.6458 44.6561 48.1462 44.1159 47.7713 43.4589C47.396 42.8019 47.2088 42.0244 47.2088 41.1265H50.5281C50.5281 41.6229 50.6055 42.0426 50.7599 42.3858C50.9143 42.7289 51.131 43.0063 51.4102 43.218C51.6973 43.4297 52.0351 43.583 52.425 43.6779C52.8219 43.7728 53.2559 43.8202 53.7264 43.8202C54.2998 43.8202 54.7704 43.74 55.1377 43.5793C55.513 43.4187 55.7884 43.1961 55.9649 42.9114C56.1488 42.6266 56.2407 42.3055 56.2407 41.9478ZM65.6696 43.5903L68.8679 30.1763H70.6545L71.0622 32.4101L67.6547 46.1198H65.7358L65.6696 43.5903ZM64.0266 30.1763L66.6732 43.5903L66.4527 46.1198H64.3132L60.7513 30.1763H64.0266ZM73.8744 43.5355L76.4882 30.1763H79.7634L76.2123 46.1198H74.0729L73.8744 43.5355ZM71.6581 30.1763L74.878 43.6451L74.7898 46.1198H72.8709L69.4413 32.3992L69.8823 30.1763H71.6581Z" fill="#333333"/>
<path fill-rule="evenodd" clip-rule="evenodd" d="M42.4663 14.2086L0 0V68.643H13.6059V35.871H28.6193V68.643H42.4663V14.2086Z" fill="#333333"/>
</svg>
