<svg width="32" height="24" viewBox="0 0 32 24" fill="none" xmlns="http://www.w3.org/2000/svg">
<path d="M29 0H3C2.20435 0 1.44129 0.316071 0.87868 0.87868C0.31607 1.44129 0 2.20435 0 3L0 21C0 21.7956 0.31607 22.5587 0.87868 23.1213C1.44129 23.6839 2.20435 24 3 24H29C29.7956 24 30.5587 23.6839 31.1213 23.1213C31.6839 22.5587 32 21.7956 32 21V3C32 2.20435 31.6839 1.44129 31.1213 0.87868C30.5587 0.316071 29.7956 0 29 0ZM28.28 2L16 10.77L3.72 2H28.28ZM30 21C30 21.2652 29.8946 21.5196 29.7071 21.7071C29.5196 21.8946 29.2652 22 29 22H3C2.73478 22 2.48043 21.8946 2.29289 21.7071C2.10536 21.5196 2 21.2652 2 21V3.23L15.42 12.81C15.5894 12.9306 15.7921 12.9954 16 12.9954C16.2079 12.9954 16.4106 12.9306 16.58 12.81L30 3.23V21Z" fill="#000"/>
</svg>
