<svg width="225" height="225" viewBox="0 0 225 225" fill="none" xmlns="http://www.w3.org/2000/svg">
<g clip-path="url(#clip0_20_2456)">
<path d="M0.868164 112.374V0.373535H224.868V224.374H0.868164" fill="#FEFFEA"/>
<path d="M49.9802 112.766V121.894H79.1002V204.774H99.7642V121.894H128.884V112.934C128.884 107.894 128.884 103.806 128.66 103.694C128.66 103.526 110.908 103.47 89.3482 103.47L50.1482 103.638V112.822L49.9802 112.766ZM180.852 103.414C186.564 104.758 190.932 107.334 194.852 111.422C196.924 113.662 200.004 117.582 200.228 118.59C200.228 118.926 190.54 125.478 184.66 129.118C184.436 129.286 183.54 128.334 182.644 126.878C179.732 122.734 176.764 120.942 172.116 120.606C165.396 120.158 160.916 123.686 160.916 129.566C160.916 131.358 161.252 132.366 161.924 133.822C163.436 136.902 166.236 138.75 174.916 142.558C190.932 149.446 197.876 153.982 202.076 160.478C206.836 167.758 207.9 179.182 204.708 187.75C201.124 197.102 192.388 203.43 179.9 205.502C175.98 206.174 167.02 206.062 162.82 205.334C153.86 203.654 145.292 199.174 140.028 193.406C137.956 191.166 133.98 185.174 134.204 184.782L136.332 183.438L144.732 178.566L151.06 174.87L152.516 176.83C154.364 179.742 158.508 183.662 160.916 185.006C168.196 188.758 177.94 188.254 182.756 183.886C184.828 181.982 185.724 179.966 185.724 177.166C185.724 174.59 185.332 173.414 184.044 171.454C182.252 168.99 178.668 166.974 168.588 162.494C156.996 157.566 152.068 154.43 147.476 149.614C144.844 146.702 142.436 142.166 141.316 138.414C140.476 135.166 140.196 127.214 140.98 124.022C143.388 112.822 151.844 104.982 163.94 102.742C167.86 101.958 177.1 102.294 180.964 103.302L180.852 103.414Z" fill="#F5BD33"/>
</g>
<defs>
<clipPath id="clip0_20_2456">
<rect width="224" height="224" fill="white" transform="translate(0.868164 0.373535)"/>
</clipPath>
</defs>
</svg>
