<svg width="225" height="225" viewBox="0 0 225 225" fill="none" xmlns="http://www.w3.org/2000/svg">
<path d="M119.533 1.46257C114.455 -0.238173 111.347 -0.238173 106.269 1.46257C93.8809 5.61153 94.4182 31.8679 98.2464 57.7732C88.5541 33.4463 75.8395 10.4676 63.0423 13.0975C57.7965 14.1755 55.1089 15.7353 51.5705 19.7553C43.0609 29.423 56.2002 51.3674 72.2045 71.6125C51.9243 55.6528 29.9509 42.5617 20.302 51.0925C16.2898 54.6398 14.7359 57.3308 13.6694 62.5789C11.0853 75.2947 33.7623 87.8736 57.9254 97.4875C32.1927 93.7304 6.26445 93.284 2.14372 105.588C0.442979 110.666 0.442979 113.774 2.14372 118.852C6.26445 131.156 32.1927 130.709 57.9254 126.952C33.7622 136.566 11.0852 149.145 13.6693 161.861C14.7358 167.109 16.2897 169.8 20.3019 173.347C29.9507 181.878 51.9237 168.787 72.2037 152.828C56.1997 173.073 43.0607 195.017 51.5702 204.685C55.1086 208.705 57.7962 210.264 63.042 211.342C75.8394 213.972 88.5543 190.993 98.2466 166.665C94.4183 192.571 93.8807 218.828 106.269 222.977C111.347 224.678 114.455 224.678 119.533 222.977C131.922 218.828 131.384 192.57 127.555 166.664C137.248 190.992 149.963 213.972 162.761 211.342C168.006 210.264 170.694 208.705 174.232 204.685C182.742 195.017 169.603 173.073 153.599 152.828C173.879 168.787 195.852 181.878 205.501 173.347C209.513 169.8 211.067 167.109 212.133 161.861C214.717 149.145 192.04 136.566 167.877 126.952C193.61 130.709 219.538 131.156 223.658 118.852C225.359 113.774 225.359 110.666 223.658 105.588C219.538 93.2841 193.61 93.7304 167.877 97.4875C192.04 87.8735 214.717 75.2946 212.133 62.5789C211.067 57.3308 209.513 54.6398 205.501 51.0925C195.852 42.5617 173.878 55.6528 153.598 71.6125C169.602 51.3674 182.742 29.423 174.232 19.7553C170.694 15.7353 168.006 14.1755 162.76 13.0975C149.963 10.4675 137.248 33.4472 127.556 57.7746C131.384 31.8689 131.921 5.61161 119.533 1.46257Z" fill="#E84A5F"/>
</svg>
