<svg width="225" height="225" viewBox="0 0 225 225" fill="none" xmlns="http://www.w3.org/2000/svg">
<path d="M112.56 0.187012C50.9604 0.187012 0.560364 50.587 0.560364 112.187C0.560364 173.787 50.9604 224.187 112.56 224.187C174.16 224.187 224.56 173.787 224.56 112.187C224.56 50.587 174.16 0.187012 112.56 0.187012ZM50.1604 174.587C33.3604 157.787 24.5604 135.387 24.5604 113.787L111.76 200.187C89.3604 199.387 66.9604 191.387 50.1604 174.587ZM131.76 197.787L26.9604 92.987C35.7604 53.787 70.9604 24.187 112.56 24.187C142.16 24.187 167.76 38.587 183.76 60.187L171.76 70.587C158.16 52.187 136.56 40.187 112.56 40.187C81.3604 40.187 54.9604 60.187 44.5604 88.187L136.56 180.187C159.76 172.187 177.36 152.187 182.96 128.187H144.56V112.187H200.56C200.56 153.787 170.96 188.987 131.76 197.787Z" fill="#FEFFEA"/>
</svg>
