<svg width="225" height="225" viewBox="0 0 225 225" fill="none" xmlns="http://www.w3.org/2000/svg">
<path d="M47.7152 32.0596C47.7152 60.9624 65.6654 78.3042 101.566 87.4314L139.596 96.2544C173.671 104.165 194.359 123.636 194.359 155.277C194.663 168.968 190.1 182.354 181.885 193.307C181.885 161.666 165.456 144.629 126.209 134.284L88.7876 125.766C58.6678 119.072 35.5455 102.948 35.5455 68.5685C35.5455 55.4861 39.8049 42.4038 47.7152 32.0596Z" fill="#FEFFEA"/>
<path d="M158.459 147.367C174.584 157.711 181.885 172.314 181.885 193.307C168.195 210.649 144.768 220.08 117.082 220.08C70.5333 220.08 37.3711 196.958 30.3735 157.102H75.0969C80.8775 175.357 96.0895 183.876 116.778 183.876C141.421 184.18 158.155 170.793 158.459 147.367ZM71.1418 74.9574C55.9298 65.8302 47.1068 49.4012 47.7153 31.7552C60.7976 14.7177 83.3114 4.37354 110.693 4.37354C158.459 4.37354 185.841 29.6255 192.838 64.9174H149.636C144.768 50.9224 132.903 39.9697 111.302 39.9697C87.875 40.2739 72.0545 53.6605 71.1418 74.9574Z" fill="#99B898"/>
</svg>
