<svg width="225" height="224" viewBox="0 0 225 224" fill="none" xmlns="http://www.w3.org/2000/svg">
<path d="M224.363 111.764C224.363 96.9246 205.78 82.8618 177.289 74.1411C183.864 45.1023 180.942 21.9992 168.066 14.6025C165.098 12.8675 161.628 12.0457 157.839 12.0457V22.2275C159.939 22.2275 161.628 22.6384 163.044 23.4146C169.253 26.9759 171.947 40.5365 169.847 57.978C169.344 62.2699 168.523 66.7901 167.518 71.4016C158.569 69.2099 148.798 67.5206 138.525 66.4248C132.361 57.978 125.969 50.3074 119.531 43.5956C134.416 29.7611 148.387 22.1818 157.884 22.1818V12C145.328 12 128.891 20.949 112.271 36.4729C95.6518 21.0404 79.2148 12.1826 66.6588 12.1826V22.3645C76.11 22.3645 90.1272 29.8981 105.012 43.6413C98.6196 50.353 92.2275 57.978 86.1549 66.4248C75.8361 67.5206 66.0652 69.2099 57.1162 71.4472C56.066 66.8814 55.2898 62.4525 54.7419 58.2063C52.596 40.7648 55.2442 27.2042 61.408 23.5972C62.7778 22.7754 64.5585 22.4101 66.6588 22.4101V12.2283C62.8235 12.2283 59.3534 13.0501 56.34 14.7852C43.51 22.1818 40.6335 45.2393 47.2539 74.1867C18.8544 82.9531 0.362793 96.9702 0.362793 111.764C0.362793 126.603 18.9457 140.665 47.4366 149.386C40.8618 178.425 43.7839 201.528 56.6596 208.925C59.6274 210.66 63.0974 211.481 66.9327 211.481C79.4888 211.481 95.9258 202.532 112.545 187.009C129.165 202.441 145.602 211.299 158.158 211.299C161.993 211.299 165.464 210.477 168.477 208.742C181.307 201.345 184.183 178.288 177.563 149.34C205.871 140.62 224.363 126.557 224.363 111.764ZM164.916 81.3094C163.226 87.1993 161.126 93.2719 158.752 99.3445C156.88 95.6918 154.916 92.0391 152.77 88.3865C150.67 84.7338 148.433 81.1724 146.196 77.7024C152.679 78.6612 158.934 79.8484 164.916 81.3094ZM144.004 129.936C140.443 136.099 136.79 141.944 133 147.377C126.197 147.971 119.303 148.29 112.363 148.29C105.468 148.29 98.574 147.971 91.8165 147.423C88.0269 141.989 84.3286 136.191 80.7672 130.073C77.2972 124.091 74.1467 118.019 71.2703 111.901C74.1011 105.782 77.2972 99.6641 80.7215 93.6828C84.2829 87.519 87.9356 81.6747 91.7252 76.2413C98.5283 75.6478 105.423 75.3282 112.363 75.3282C119.257 75.3282 126.152 75.6478 132.909 76.1957C136.699 81.629 140.397 87.4276 143.958 93.5459C147.428 99.5271 150.579 105.6 153.455 111.718C150.579 117.836 147.428 123.954 144.004 129.936ZM158.752 124C161.217 130.118 163.318 136.236 165.053 142.172C159.071 143.633 152.77 144.866 146.241 145.825C148.479 142.309 150.716 138.702 152.816 135.004C154.916 131.351 156.88 127.653 158.752 124ZM112.454 172.717C108.208 168.334 103.962 163.449 99.7611 158.107C103.87 158.289 108.071 158.426 112.317 158.426C116.609 158.426 120.855 158.335 125.01 158.107C120.901 163.449 116.655 168.334 112.454 172.717ZM78.4843 145.825C72.0008 144.866 65.7456 143.679 59.7643 142.218C61.4537 136.328 63.554 130.255 65.9282 124.183C67.8002 127.835 69.7635 131.488 71.9095 135.141C74.0554 138.793 76.247 142.355 78.4843 145.825ZM112.226 50.8096C116.472 55.1928 120.718 60.0783 124.919 65.4203C120.81 65.2377 116.609 65.1007 112.363 65.1007C108.071 65.1007 103.825 65.192 99.6698 65.4203C103.779 60.0783 108.025 55.1928 112.226 50.8096ZM78.4386 77.7024C76.2014 81.2181 73.9641 84.8251 71.8638 88.5234C69.7635 92.1761 67.8002 95.8288 65.9282 99.4815C63.4627 93.3632 61.3624 87.245 59.6274 81.3094C65.6086 79.894 71.9095 78.6612 78.4386 77.7024ZM37.1178 134.867C20.9547 127.972 10.499 118.932 10.499 111.764C10.499 104.595 20.9547 95.5092 37.1178 88.6604C41.0444 86.9711 45.3363 85.4643 49.7652 84.0489C52.3677 92.998 55.7921 102.312 60.0383 111.855C55.8377 121.352 52.459 130.62 49.9021 139.524C45.382 138.108 41.0901 136.556 37.1178 134.867ZM61.682 200.113C55.4725 196.551 52.7786 182.991 54.8789 165.549C55.3811 161.257 56.203 156.737 57.2075 152.126C66.1565 154.317 75.9274 156.007 86.2006 157.102C92.3644 165.549 98.7566 173.22 105.194 179.932C90.3098 193.766 76.3383 201.345 66.8414 201.345C64.7868 201.3 63.0518 200.889 61.682 200.113ZM169.984 165.321C172.13 182.762 169.481 196.323 163.318 199.93C161.948 200.752 160.167 201.117 158.067 201.117C148.616 201.117 134.598 193.583 119.714 179.84C126.106 173.128 132.498 165.503 138.571 157.057C148.89 155.961 158.66 154.272 167.609 152.034C168.66 156.646 169.481 161.075 169.984 165.321ZM187.562 134.867C183.636 136.556 179.344 138.063 174.915 139.478C172.312 130.529 168.888 121.215 164.642 111.672C168.842 102.175 172.221 92.9066 174.778 84.0033C179.298 85.4187 183.59 86.9711 187.608 88.6604C203.771 95.5548 214.227 104.595 214.227 111.764C214.181 118.932 203.725 128.018 187.562 134.867Z" fill="#FEFFEA"/>
<path d="M112.317 132.63C123.841 132.63 133.183 123.288 133.183 111.764C133.183 100.24 123.841 90.8979 112.317 90.8979C100.793 90.8979 91.4513 100.24 91.4513 111.764C91.4513 123.288 100.793 132.63 112.317 132.63Z" fill="#FEFFEA"/>
</svg>
