<svg width="225" height="225" viewBox="0 0 225 225" fill="none" xmlns="http://www.w3.org/2000/svg">
<path d="M114.647 221.608C173.973 220.219 221.638 171.692 221.638 112.033C221.638 51.4993 172.566 2.42725 112.033 2.42725C52.3733 2.42725 3.84651 50.0928 2.45799 109.419L2.42743 221.638L114.647 221.608Z" fill="#F5BD33"/>
<path d="M36.276 131V94.132H45.584V131H36.276ZM58.844 131V94.132H68.152V131H58.844ZM41.58 116.024V108.224H62.224V116.024H41.58ZM89.9014 131.572C86.7814 131.572 84.0254 130.931 81.6334 129.648C79.2761 128.331 77.4387 126.511 76.1214 124.188C74.8041 121.865 74.1454 119.231 74.1454 116.284V94.132H83.4014V116.96C83.4014 118.277 83.6787 119.421 84.2334 120.392C84.8227 121.328 85.6027 122.056 86.5734 122.576C87.5787 123.061 88.6881 123.304 89.9014 123.304C91.1494 123.304 92.2414 123.061 93.1774 122.576C94.1134 122.056 94.8587 121.328 95.4134 120.392C95.9681 119.456 96.2454 118.329 96.2454 117.012V94.132H105.605V116.336C105.605 119.283 104.947 121.917 103.629 124.24C102.312 126.528 100.475 128.331 98.1174 129.648C95.7947 130.931 93.0561 131.572 89.9014 131.572ZM129.37 131.572C126.562 131.572 123.962 131.104 121.57 130.168C119.212 129.197 117.132 127.845 115.33 126.112C113.562 124.379 112.175 122.368 111.17 120.08C110.199 117.757 109.714 115.244 109.714 112.54C109.714 109.801 110.216 107.288 111.222 105C112.262 102.677 113.7 100.667 115.538 98.968C117.375 97.2347 119.507 95.9 121.934 94.964C124.395 93.9933 127.012 93.508 129.786 93.508C133.079 93.508 136.06 94.0973 138.73 95.276C141.399 96.42 143.566 98.0147 145.23 100.06L138.99 106.3C137.742 104.809 136.372 103.7 134.882 102.972C133.391 102.209 131.658 101.828 129.682 101.828C127.671 101.828 125.868 102.279 124.274 103.18C122.714 104.047 121.466 105.277 120.53 106.872C119.594 108.467 119.126 110.339 119.126 112.488C119.126 114.637 119.559 116.527 120.426 118.156C121.327 119.785 122.54 121.051 124.066 121.952C125.626 122.853 127.411 123.304 129.422 123.304C131.432 123.304 133.131 122.923 134.518 122.16C135.939 121.397 137.014 120.288 137.742 118.832C138.504 117.376 138.886 115.643 138.886 113.632L145.178 117.688L128.382 117.272V109.68H148.246V111.084C148.246 115.487 147.448 119.213 145.854 122.264C144.259 125.315 142.04 127.637 139.198 129.232C136.39 130.792 133.114 131.572 129.37 131.572ZM171.165 131.676C168.323 131.676 165.705 131.191 163.313 130.22C160.921 129.249 158.824 127.897 157.021 126.164C155.253 124.431 153.867 122.403 152.861 120.08C151.856 117.723 151.353 115.192 151.353 112.488C151.353 109.784 151.839 107.288 152.809 105C153.815 102.677 155.201 100.649 156.969 98.916C158.737 97.1827 160.817 95.848 163.209 94.912C165.601 93.9413 168.219 93.456 171.061 93.456C173.904 93.456 176.521 93.9413 178.913 94.912C181.305 95.848 183.385 97.1827 185.153 98.916C186.921 100.649 188.291 102.677 189.261 105C190.267 107.323 190.769 109.836 190.769 112.54C190.769 115.244 190.267 117.757 189.261 120.08C188.291 122.403 186.921 124.448 185.153 126.216C183.385 127.949 181.305 129.301 178.913 130.272C176.556 131.208 173.973 131.676 171.165 131.676ZM171.061 123.356C173.141 123.356 174.944 122.905 176.469 122.004C177.995 121.103 179.173 119.837 180.005 118.208C180.837 116.579 181.253 114.672 181.253 112.488C181.253 110.893 181.011 109.437 180.525 108.12C180.075 106.803 179.399 105.676 178.497 104.74C177.596 103.769 176.521 103.024 175.273 102.504C174.025 101.984 172.621 101.724 171.061 101.724C168.981 101.724 167.179 102.175 165.653 103.076C164.128 103.943 162.949 105.191 162.117 106.82C161.285 108.449 160.869 110.339 160.869 112.488C160.869 114.152 161.095 115.66 161.545 117.012C162.031 118.329 162.724 119.473 163.625 120.444C164.527 121.38 165.601 122.108 166.849 122.628C168.097 123.113 169.501 123.356 171.061 123.356Z" fill="#FEFFEA"/>
</svg>
