<svg width="225" height="225" viewBox="0 0 225 225" fill="none" xmlns="http://www.w3.org/2000/svg">
<path d="M115.954 55.7697C129.657 53.9439 140.228 42.2106 140.228 28.0082C140.228 12.5397 127.688 0 112.22 0C96.7512 0 84.2114 12.5397 84.2114 28.0082C84.2114 42.2106 94.7823 53.9439 108.485 55.7697V103.017L75.0761 69.6082C83.4747 58.6277 82.6526 42.8562 72.6101 32.8136C61.6722 21.8757 43.9383 21.8757 33.0004 32.8136C22.0626 43.7515 22.0626 61.4854 33.0004 72.4233C43.043 82.4658 58.8144 83.2879 69.7948 74.8894L103.204 108.298H55.9564C54.1307 94.5955 42.3973 84.0247 28.195 84.0247C12.7265 84.0247 0.186768 96.5644 0.186768 112.033C0.186766 127.501 12.7265 140.041 28.195 140.041C42.3973 140.041 54.1307 129.47 55.9564 115.767H103.204L69.7949 149.176C58.8144 140.778 43.0431 141.6 33.0006 151.643C22.0627 162.58 22.0627 180.314 33.0006 191.252C43.9385 202.19 61.6723 202.19 72.6102 191.252C82.6528 181.209 83.4748 165.438 75.0762 154.457L108.485 121.048V168.296C94.7823 170.122 84.2114 181.855 84.2114 196.058C84.2114 211.526 96.7512 224.066 112.22 224.066C127.688 224.066 140.228 211.526 140.228 196.058C140.228 181.855 129.657 170.122 115.954 168.296V121.049L149.363 154.458C140.965 165.438 141.787 181.21 151.829 191.252C162.767 202.19 180.501 202.19 191.439 191.252C202.377 180.314 202.377 162.58 191.439 151.643C181.396 141.6 165.625 140.778 154.644 149.176L121.235 115.767H168.483C170.309 129.47 182.042 140.041 196.244 140.041C211.713 140.041 224.253 127.501 224.253 112.033C224.253 96.5644 211.713 84.0247 196.244 84.0247C182.042 84.0247 170.309 94.5955 168.483 108.298H121.235L154.644 74.8894C165.625 83.2879 181.396 82.4659 191.439 72.4233C202.377 61.4854 202.377 43.7516 191.439 32.8137C180.501 21.8758 162.767 21.8758 151.829 32.8137C141.787 42.8562 140.965 58.6277 149.363 69.6081L115.954 103.017V55.7697Z" fill="#99B898"/>
</svg>
