<svg width="225" height="225" viewBox="0 0 225 225" fill="none" xmlns="http://www.w3.org/2000/svg">
<path d="M81.2634 29.5471C111.95 60.1994 112.212 111.868 112.212 111.868C112.212 111.868 62.722 113.839 32.0357 83.187C1.34933 52.5347 1.08701 0.86608 1.08701 0.86608C1.08701 0.86608 50.5771 -1.10525 81.2634 29.5471Z" fill="#E55733"/>
<path d="M143.161 29.5471C112.474 60.1994 112.212 111.868 112.212 111.868C112.212 111.868 161.702 113.839 192.388 83.187C223.075 52.5347 223.337 0.86608 223.337 0.86608C223.337 0.86608 173.847 -1.10525 143.161 29.5471Z" fill="#E55733"/>
<path d="M81.2634 194.145C111.95 163.493 112.212 111.824 112.212 111.824C112.212 111.824 62.722 109.853 32.0357 140.505C1.34933 171.158 1.08701 222.826 1.08701 222.826C1.08701 222.826 50.5771 224.798 81.2634 194.145Z" fill="#E55733"/>
<path d="M143.161 194.145C112.474 163.493 112.212 111.824 112.212 111.824C112.212 111.824 161.702 109.853 192.388 140.505C223.075 171.158 223.337 222.826 223.337 222.826C223.337 222.826 173.847 224.798 143.161 194.145Z" fill="#E55733"/>
</svg>
